# xmcd
#
# Track frame offsets:
#	150
#	15606
#	30117
#	45490
#	60453
#	78636
#	93807
#	107460
#	121364
#	134128
#	148669
#	163476
#	180823
#	195549
#	211158
#	225355
#	240968
#	257311
#	273020
#	287880
#	300506
#	316347
#	327986
#	342816
#
# Disc length: 4762 seconds
# Revision: 0
# Processed by: cddbd v1.5.2PL0 Copyright (c) Steve Scherf et al.
# Submitted via: dBpowerAMP V12.0
#
DISCID=35129818
DTITLE=Nic Pizzolatto - Galveston 3
DYEAR=1900
DGENRE=
TTITLE0=051
TTITLE1=052
TTITLE2=053
TTITLE3=054
TTITLE4=055
TTITLE5=056
TTITLE6=057
TTITLE7=058
TTITLE8=059
TTITLE9=060
TTITLE10=061
TTITLE11=062
TTITLE12=063
TTITLE13=064
TTITLE14=065
TTITLE15=066
TTITLE16=067
TTITLE17=068
TTITLE18=069
TTITLE19=070
TTITLE20=071
TTITLE21=072
TTITLE22=073
TTITLE23=074
EXTD=
EXTT0=
EXTT1=
EXTT2=
EXTT3=
EXTT4=
EXTT5=
EXTT6=
EXTT7=
EXTT8=
EXTT9=
EXTT10=
EXTT11=
EXTT12=
EXTT13=
EXTT14=
EXTT15=
EXTT16=
EXTT17=
EXTT18=
EXTT19=
EXTT20=
EXTT21=
EXTT22=
EXTT23=
PLAYORDER=
